<svg version="1.2" xmlns="http://www.w3.org/2000/svg" viewBox="0 0 128 128" width="128" height="128">
	<style>
		.s0 { fill: #c5c5c5 } 
		.s1 { fill: #1a1a1a } 
		.s2 { fill: #494949 } 
		.s3 { fill: #909090 } 
		.s4 { fill: #f9f9f9 } 
	</style>
	<g id="Background">
		<path id="Path 3" fill-rule="evenodd" class="s0" d="m55 15h1v1h-1zm12 3v-1l2 1zm-25 1h1v1h-1zm1 1h1v1h-1zm1 1h1v1h-1zm9 3h1v1h-1zm1 1h1v1h-1zm16 1h1v1h-1zm0 2h1v1h-1zm8 0h1v1h-1zm-25 1h1v1h-1zm14 0h1v1h-1zm2 0h1v1h-1zm4 0h1v1h-1zm-21 3v-2h1zm5-2h1v1h-1zm-4 5l1-4h1v2 2 1 1 1h-1v-1zm21-4h1v1h-1zm-23 1h1v1h-1zm-1 5l2-3v1l-1 2zm25 0l1-3h1v6h-1v-1l-1-1zm-12-1h1v1h-1zm-8 2h1v1h-1zm19 0h1v1h-1zm6 0h1v1h-1zm-32 1h1v1h-1zm10 0h1v1h-1zm-1 3l-1-2h2v1 1zm-10-1h1v1h-1zm32 1l-2-1h1 1zm1 0v-1h1v2zm-6 0h1v1h-1zm-17 1h1v1h-1zm24 3v-3l2 1zm-35-2h1v1h-1zm9 2l1 3-4-2 2-1zm1 0h1v1h-1zm22 0h1v1h-1zm-19 2v-1l2 1zm6 0h1v1h-1zm-7 1h1v1h-1zm-4 2h1v1h-1zm7 1l-1-1 2 1zm0 1h1v1h-1zm12 0h1v1h-1zm-29 5l1-4v4zm2-3h1v1h-1zm10 0h1v1h-1zm-9 3v-2l1 2zm-2 0h1v1h-1zm12 0h1v1h-1zm-13 1h1v1h-1zm10 0h1v1h-1zm2 0h1v1h-1zm6 0h1v1h-1zm-15 3l-2 7v-9l2 1zm0-2h1v1h-1zm8 0h1v1h-1zm-2 1h1v1h-1zm10 4h1v1h-1zm1 4h1v1h-1zm-1 1h1v1h-1zm1 1h1v1h-1zm0 3v-2l1 2zm-13 2l2-1v4l-2-2zm14-1h1v1h-1zm-1 1h1v1h-1zm1 1h1v1h-1zm-1 1h1v1h-1zm-19 1h1v1h-1zm21 1h1v1h-1zm-1 1h1v1h-1zm1 4v-3h1v2 1zm1 0h1v1h-1zm-19 2h1v1h-1zm16 0h1v1h-1zm3 0h1v1h-1zm-19 2h1v1h-1zm5 8l-2 3 1-9zm0-2l1-3v3zm10-3h1v1h-1zm0 2h1v1h-1zm-10 2l1-1 1 3-2-1zm13-1h1v1h-1zm-3 1h1v1h-1zm-6 2h1v1h-1zm8 0h1v1h-1zm-16 1h1v1h-1zm5 0h1v1h-1zm5 1v-1h2 1l-2 1zm6 1v-1h1v1zm-9 6l-1-6h1v2zm9-4v-1h1l-1 2zm-14 5h1v1h-1zm5 2v-2h1v2 1h-1zm7-2h1v1h-1zm-13 5l-2 2v-5l2 1zm0-3h1v1h-1zm5 1h1v1h-1zm8 0h1v1h-1zm-6 2v-1h1 2v1 1zm-7 0h1v1h-1zm11 1v-1h1 1zm-10 2l1 3-2-3zm76 10h1v1h-1zm-1 1h1v1h-1z"/>
		<path id="Path 4" fill-rule="evenodd" class="s1" d="m57 16v-1h2 2 2l1 1h1l1 1 1 3 1 1 1 1v1 1h-1l-1 1h-1v1l1 1-2 1h-1l-2-1-1-1h-1l-2-2h-1v-3h1l1 1-1-1h-1l-2 1 1-3 2-2zm0 1l-2-1h1 1zm11 2h1v1h-1zm1 2v-1h2v1h-1zm2 1v-1h1 1l1 1 1 1 1 1v1l1 1v1l1 1 1 1v1 1l1 3v1 1 2 1 2h-1-1l-1-1v-6l-1-2h-1v-1l-1-1v-1l-1-1-1-1v-1h3l-3-3zm-20 3v-1h1l1 1v1h-1-1zm19 1v-2h1v1 1zm-14 0v-1h2v1zm13 0l-2-1h1 1zm-16 0h1v1h-1zm6 2l-1-2h2l1 1 1 1h1v2h-1l-2-1zm-5 0v-1l2 2h-1zm16 0v-1h1 1v1h-1zm-1 0h1v1h-1zm-11 2v-1h1 1l2 1 1 1v2h-1l-1-1-1-1h-1zm6 3l1-1h1l1 3h-1l-1-1h-1zm-8 2l1-1h1v1zm-1 0h1v1h-1zm3 0h1v1h-1zm1 3v-2h1 1l-1 2zm-8 0v-1h2l1 1v2h-1zm-1 0h1v1h-1zm8 0h1v1h-1zm2 1v-1l2 1v1h-1-1zm-11 0h1v1h-1zm-1 2l2-1 2 1h1v3h-1l-1-1h-3v-1zm7 3v-2h1v1 1zm11 41h1v1h-1zm-3 6h1v1h-1zm-7 9l2-1h1v1l1 1v1l1 1v1l1 1v1l1 2v1l-2 1-3 1-1-1v-2l-1-5v-2zm5 11v-1h2v1zm-4 0h1v1h-1zm3 2h1v1h-1z"/>
		<path id="Path 5" fill-rule="evenodd" class="s2" d="m56 15h1v1h-1zm-4 4l3-3 2 1h1l-2 2-1-1-1 1-1 1zm13-3h1v1h-1zm2 4l-1-3h1v1l1 1v1zm-25-2h1v1h-1zm2 2v-1h1l1 1h1l-2 1h-1zm10 0v-1h1 1l-1 3zm15 0v-1h1 1v1zm2 0h1v1h-1zm-25 2l2-1h1v1l1 1 1 1v1h-1-1l-1-1-1-1zm9 0l2-1v3h-1zm13-1h1v1h-1zm2 0h1v1h-1zm-1 3v-1l1 1v2h-1v-1zm3 0v-1l3 3h-3-1v-1zm-20 0h1v1h-1zm2 1v-1h2v1h-1zm4 0v-1l2 2h-2zm-5 0h1v1h-1zm-1 1h1v1h-1zm2 1v-1h1 1 2l1 2v1h-1v1h-1-1v-1zm7 0v-1l1 1v1zm-8 0h1v1h-1zm12 1l2-1 2 1-1 1h-1zm12-1h1v1h-1zm-14 3v-2h1zm-1 0h1v1h-1zm4 2l1-2h1l2 4h1l1 1 1 1v1h-1-2l-1-1h-1l-1-1zm-3 1v-2h2v1l-1 1zm17 1l-1-3h1zm-25 1v-2h1 1v1l-1 1zm3-1h1v1h-1zm-3 2l1-1h2l1 1v2h-1-1-1l-1-1zm4-1h1v1h-1zm1 3l1-2h1l1 1v1 1h-1zm-7-1h1v1h-1zm20 1v-1h1 1v1h-1zm-24 0h1v1h-1zm1 1l1-1 2 2-1 1-2-1zm9-1h1v1h-1zm-11 3v-1h1 1zm5 0v-1h1l1 2v2l-1 1-1-1zm-6 1h1v1h-1zm9 0h1v1h-1zm-1 3v-1h1 1v2h-1-1zm3 3h1v1h-1zm3 4h1v1h-1zm0 9h1v1h-1zm3 27l1-1h2v1l-1 1h-2zm4 2l-2-1h2zm-12 10v-1h1 1zm3 0h1v1h-1zm-3 7v-4l1 5h-1zm-6 2h1v1h-1zm8 2l3-1v1l-1 1h-2zm3-1l2-1v1zm-5 2v-1h1v1 1zm4 0l1-1h2v1l-1 1h-1-1z"/>
		<path id="Path 6" fill-rule="evenodd" class="s3" d="m63 15h1v1h-1zm-20 4v-1l1 1v1h-1zm25 0l-1-1h2l1 1h-1zm-23 0h1v1h-1zm4 2l3-2 1 1h1l1 2 1 2h-2l-1-1-1 1h-1l-1-1-1-1zm22-2h1v1h-1zm-26 2l2-1 1 1-2 1h-1zm23 0l-1-1h1 1v1zm4-1h1v1h-1zm-3 2v-1h1l1 1 1 1-1 1h-1l-1-1zm4-1h1v1h-1zm1 1h1v1h-1zm1 1h1v1h-1zm-19 2v-1h1 1v1zm12-1h1v1h-1zm3 0h1v1h-1zm-21 1h1v1h-1zm5 0h1v1h-1zm11 1v-1h1l2 1h1v1 1h-1l-2-1zm10-1h1v1h-1zm-25 1h1v1h-1zm9 0h1v1h-1zm11 0h1v1h-1zm-9 2v-1l2 1h-1zm1 2l1-2h1l2 1v1l-1 2h-1v-1h-2zm5-1l1-1v1 1l1 4-2-4zm-16 0h1v1h-1zm3 2v-2h1v1 3h-1zm-4 1l1-2v2zm1 0l1-2h1v1l-1 4v-1l-1-1zm27-2h1v1h-1zm-20 1h1v1h-1zm17 3v-2l1 2zm-19-1h1v1h-1zm6 0h1v1h-1zm-4 1h1v1h-1zm-8 3l1-2h1l1 2h-1zm9-2h1v1h-1zm2 1h1v1h-1zm-12 1h1v1h-1zm13 0h1v1h-1zm9 0h1v1h-1zm-18 3v-2h1l1 1v1l1 2h-1-1zm3-2h1v1h-1zm2 1h1v1h-1zm3 0h1v1h-1zm18 2v-2h1v2zm-22-1h1v1h-1zm3 0h1v1h-1zm15 0h1v1h-1zm3 1h1v1h-1zm-22 1h1v1h-1zm-6 2l-3-1h3zm5-1h1v1h-1zm-2 2h1v1h-1zm3 2v-1h1 1v1 1h-1zm0 1h1v1h-1zm2 2h1v1h-1zm-15 8h1v1h-1zm3 0h1v1h-1zm15 0h1v1h-1zm-14 1h1v1h-1zm15 11v-2l1 1v1zm1 0h1v1h-1zm0 6v-2h1v1 1zm-14 0h1v1h-1zm15 0h1v1h-1zm0 5l-1-2h1l1 1v1zm1 0h1v1h-1zm1 3h1v1h-1zm-2 3l1-1h1 1v1h-1zm1 2l1-1h1v1zm-3 1l1-1h2l2 1v1l-1 1h-3v-1zm0 3h-3l3-3v1 1zm-10 2h1v1h-1zm12 1h1v1h-1zm-3 1h1v1h-1zm-4 1h1v1h-1zm3 0h1v1h-1zm-6 2v-1h1v1 1h-1zm10-1h1v1h-1zm0 2h1v1h-1zm-5 1h1v1h-1zm4 1h1v1h-1zm-3 1h1v1h-1zm2 6v-1h1v2h-1zm-12 0h1v1h-1zm4 0h1v1h-1zm-5 6v-2h1v2z"/>
		<path id="Path 7" class="s4" d="m71 23h1v1h-1z"/>
		<path id="Path 8" class="s0" d="m52 23h1v1h-1zm-4 1h1v1h-1zm6 4h1v1h-1zm11 2h1v1h-1zm-4 2h1v1h-1zm10 2h1v1h-1zm-2 2h1v1h-1zm-6 54h1v1h-1zm4 1h1v1h-1z"/>
		<path id="Path 9" class="s1" d="m55 18h1v1h-1zm-2 1h1v1h-1zm-4 3h1v1h-1zm8 6h1v1h-1zm0 9h1v1h-1zm-5 3h1v1h-1zm2 4h1v1h-1zm8 68h1v1h-1z"/>
		<path id="Path 10" class="s2" d="m57 20h1v1h-1zm1 1h1v1h-1zm1 1h1v1h-1zm-6 1h1v1h-1zm14 1h1v1h-1zm-2 1h1v1h-1zm7 2h1v1h-1zm1 1h1v1h-1zm-15 2h1v1h-1zm16 0h1v1h-1zm-14 1h1v1h-1zm-8 2h1v1h-1zm27 2h1v1h-1zm-2 5h1v1h-1zm-25 1h1v1h-1zm-1 2h1v1h-1zm6 4h1v1h-1zm0 63h1v1h-1z"/>
		<path id="Path 11" class="s3" d="m57 16h1v1h-1zm-3 2h1v1h-1zm-7 5h1v1h-1zm12 5h1v1h-1zm6 6h1v1h-1zm2 1h1v1h-1zm5 0h1v1h-1zm1 1h1v1h-1zm-18 1h1v1h-1zm20 1h1v1h-1zm-15 73h1v1h-1z"/>
	</g>
</svg>